# xmcd
#
# Track frame offsets: 
#        150
#        14554
#        29496
#        44104
#        83704
#        102561
#        119472
#        144241
#        160524
#        185504
#        204217
#        213036
#        226638
#        247130
#        267078
#        280029
#
# Disc length: 3968 seconds
#
# Revision: 0
# Processed by: cddbd v1.5.2PL0 Copyright (c) Steve Scherf et al.
# Submitted via: ExactAudioCopy v1.0b3
#
DISCID=d80f7e10
DTITLE=Alan Stivell - Best-of
DYEAR=1900
DGENRE=Folk/Rock
TTITLE0=Tri Martolod
TTITLE1=Pop-Plinn
TTITLE2=Suite Sudarmoricaine
TTITLE3=Ys
TTITLE4=La mémoire de l'Humain
TTITLE5=Mna na-héireann
TTITLE6=Brian Boru
TTITLE7=Suzy McGuire
TTITLE8=A United earth 1
TTITLE9=Ian Morrisson Reel
TTITLE10=Gouel hollvedel
TTITLE11=La Celtie et l'infini
TTITLE12=La Dame du lac
TTITLE13=Let the Plinn
TTITLE14=Suite Irlandaise
TTITLE15=Miz-Tu
EXTD=
EXTT0=
EXTT1=
EXTT2=
EXTT3=
EXTT4=
EXTT5=
EXTT6=
EXTT7=
EXTT8=
EXTT9=
EXTT10=
EXTT11=
EXTT12=
EXTT13=
EXTT14=
EXTT15=
PLAYORDER=
